# xmcd
#
# Track frame offsets: 
#        150
#        11913
#        30865
#        52246
#        71548
#        92642
#        116433
#        138612
#        155237
#        174016
#        195056
#        215816
#        237511
#        257001
#        277191
#        296924
#
# Disc length: 4160 seconds
#
# Revision: 2
# Processed by: cddbd v1.5.2PL0 Copyright (c) Steve Scherf et al.
# Submitted via: ExactAudioCopyFreeDBPlugin 1.0
#
DISCID=f0103e10
DTITLE=CDS制作 - TEST-CD-06A【试音极品碟】
DYEAR=2011
DGENRE=stereo
TTITLE0=春天圆舞曲
TTITLE1=我是否也在你心中
TTITLE2=落花的事
TTITLE3=你走以后
TTITLE4=一把小雨伞
TTITLE5=雁南飞
TTITLE6=草原之夜
TTITLE7=微风往事
TTITLE8=曾经是我最爱的人
TTITLE9=梦江南
TTITLE10=唱首山歌给草原
TTITLE11=小夜曲
TTITLE12=雅鲁藏布
TTITLE13=张三的歌
TTITLE14=嫂子颂
TTITLE15=采蘑菇的小姑娘
EXTD=
EXTT0=
EXTT1=
EXTT2=
EXTT3=
EXTT4=
EXTT5=
EXTT6=
EXTT7=
EXTT8=
EXTT9=
EXTT10=
EXTT11=
EXTT12=
EXTT13=
EXTT14=
EXTT15=
PLAYORDER=
